<svg xmlns="http://www.w3.org/2000/svg" xmlns:xlink="http://www.w3.org/1999/xlink" width="500" zoomAndPan="magnify" viewBox="0 0 375 374.999991" height="500" preserveAspectRatio="xMidYMid meet" version="1.0"><defs><clipPath id="0b4b806b0b"><path d="M 50 136 L 124 136 L 124 180 L 50 180 Z M 50 136 " clip-rule="nonzero"/></clipPath><clipPath id="96dbf62011"><path d="M 50.757812 179.574219 L 108.824219 121.507812 L 123.441406 136.125 L 65.375 194.1875 Z M 50.757812 179.574219 " clip-rule="nonzero"/></clipPath><clipPath id="013b8a760c"><path d="M 94.296875 136.035156 L 50.757812 179.574219 L 79.886719 179.675781 L 123.425781 136.136719 Z M 94.296875 136.035156 " clip-rule="nonzero"/></clipPath><clipPath id="0d8f785d71"><path d="M 0.640625 0 L 73.601562 0 L 73.601562 43.761719 L 0.640625 43.761719 Z M 0.640625 0 " clip-rule="nonzero"/></clipPath><clipPath id="219737b063"><path d="M 0.757812 43.574219 L 58.824219 -14.492188 L 73.441406 0.125 L 15.375 58.1875 Z M 0.757812 43.574219 " clip-rule="nonzero"/></clipPath><clipPath id="8ef5eed53e"><path d="M 44.296875 0.0351562 L 0.757812 43.574219 L 29.886719 43.675781 L 73.425781 0.136719 Z M 44.296875 0.0351562 " clip-rule="nonzero"/></clipPath><clipPath id="e1be3a3785"><rect x="0" width="74" y="0" height="44"/></clipPath><clipPath id="bda02562d4"><path d="M 123.421875 109.777344 L 144.09375 109.777344 L 144.09375 191.894531 L 123.421875 191.894531 Z M 123.421875 109.777344 " clip-rule="nonzero"/></clipPath><clipPath id="ff42345173"><path d="M 123.421875 130.320312 L 123.421875 191.894531 L 144.09375 171.371094 L 144.09375 109.796875 Z M 123.421875 130.320312 " clip-rule="nonzero"/></clipPath><clipPath id="0e03222db8"><path d="M 0.421875 0.777344 L 21.09375 0.777344 L 21.09375 82.894531 L 0.421875 82.894531 Z M 0.421875 0.777344 " clip-rule="nonzero"/></clipPath><clipPath id="a0da9e8dd5"><path d="M 0.421875 21.320312 L 0.421875 82.894531 L 21.09375 62.371094 L 21.09375 0.796875 Z M 0.421875 21.320312 " clip-rule="nonzero"/></clipPath><clipPath id="92c460fd72"><rect x="0" width="22" y="0" height="83"/></clipPath><clipPath id="d06aef65b8"><path d="M 73 15 L 147 15 L 147 59 L 73 59 Z M 73 15 " clip-rule="nonzero"/></clipPath><clipPath id="73b21c5a21"><path d="M 146.203125 15.425781 L 88.140625 73.488281 L 73.523438 58.875 L 131.589844 0.808594 Z M 146.203125 15.425781 " clip-rule="nonzero"/></clipPath><clipPath id="96e2c8c89d"><path d="M 102.667969 58.960938 L 146.203125 15.425781 L 117.074219 15.320312 L 73.539062 58.859375 Z M 102.667969 58.960938 " clip-rule="nonzero"/></clipPath><clipPath id="b38768f974"><path d="M 0.441406 0.121094 L 73.398438 0.121094 L 73.398438 44 L 0.441406 44 Z M 0.441406 0.121094 " clip-rule="nonzero"/></clipPath><clipPath id="8dd8ec1e95"><path d="M 73.203125 0.425781 L 15.140625 58.488281 L 0.523438 43.875 L 58.589844 -14.191406 Z M 73.203125 0.425781 " clip-rule="nonzero"/></clipPath><clipPath id="23981d500e"><path d="M 29.667969 43.960938 L 73.203125 0.425781 L 44.074219 0.320312 L 0.539062 43.859375 Z M 29.667969 43.960938 " clip-rule="nonzero"/></clipPath><clipPath id="ad168e2ecc"><rect x="0" width="74" y="0" height="44"/></clipPath><clipPath id="d437909105"><path d="M 135 73 L 180 73 L 180 147 L 135 147 Z M 135 73 " clip-rule="nonzero"/></clipPath><clipPath id="f93ac075ac"><path d="M 179.488281 146.132812 L 121.421875 88.066406 L 136.039062 73.449219 L 194.105469 131.515625 Z M 179.488281 146.132812 " clip-rule="nonzero"/></clipPath><clipPath id="2a46b4826f"><path d="M 135.949219 102.59375 L 179.488281 146.132812 L 179.59375 117.003906 L 136.054688 73.464844 Z M 135.949219 102.59375 " clip-rule="nonzero"/></clipPath><clipPath id="4f94091d12"><path d="M 0.839844 0.441406 L 44.761719 0.441406 L 44.761719 73.160156 L 0.839844 73.160156 Z M 0.839844 0.441406 " clip-rule="nonzero"/></clipPath><clipPath id="4fed98d626"><path d="M 44.488281 73.132812 L -13.578125 15.066406 L 1.039062 0.449219 L 59.105469 58.515625 Z M 44.488281 73.132812 " clip-rule="nonzero"/></clipPath><clipPath id="eeb5e052c8"><path d="M 0.949219 29.59375 L 44.488281 73.132812 L 44.59375 44.003906 L 1.054688 0.464844 Z M 0.949219 29.59375 " clip-rule="nonzero"/></clipPath><clipPath id="4e9f85679d"><rect x="0" width="45" y="0" height="74"/></clipPath><clipPath id="02e403c506"><path d="M 53.179688 4.753906 L 73.847656 4.753906 L 73.847656 86.867188 L 53.179688 86.867188 Z M 53.179688 4.753906 " clip-rule="nonzero"/></clipPath><clipPath id="a88269442b"><path d="M 73.847656 66.324219 L 73.847656 4.753906 L 53.179688 25.277344 L 53.179688 86.847656 Z M 73.847656 66.324219 " clip-rule="nonzero"/></clipPath><clipPath id="2350177b30"><path d="M 0.179688 0.753906 L 20.847656 0.753906 L 20.847656 82.867188 L 0.179688 82.867188 Z M 0.179688 0.753906 " clip-rule="nonzero"/></clipPath><clipPath id="5f0f4d1ec0"><path d="M 20.847656 62.324219 L 20.847656 0.753906 L 0.179688 21.277344 L 0.179688 82.847656 Z M 20.847656 62.324219 " clip-rule="nonzero"/></clipPath><clipPath id="f41559b6b5"><rect x="0" width="21" y="0" height="83"/></clipPath><clipPath id="2de5a8362e"><path d="M 108.34375 52.800781 L 190.460938 52.800781 L 190.460938 73.46875 L 108.34375 73.46875 Z M 108.34375 52.800781 " clip-rule="nonzero"/></clipPath><clipPath id="daa6add1de"><path d="M 128.886719 73.46875 L 190.460938 73.46875 L 169.9375 52.800781 L 108.363281 52.800781 Z M 128.886719 73.46875 " clip-rule="nonzero"/></clipPath><clipPath id="b8637b22a6"><path d="M 0.34375 0.800781 L 82.460938 0.800781 L 82.460938 21.46875 L 0.34375 21.46875 Z M 0.34375 0.800781 " clip-rule="nonzero"/></clipPath><clipPath id="8aa22eb03b"><path d="M 20.886719 21.46875 L 82.460938 21.46875 L 61.9375 0.800781 L 0.363281 0.800781 Z M 20.886719 21.46875 " clip-rule="nonzero"/></clipPath><clipPath id="c589d61aea"><rect x="0" width="83" y="0" height="22"/></clipPath><clipPath id="a7ba2f3177"><path d="M 15 48 L 60 48 L 60 122 L 15 122 Z M 15 48 " clip-rule="nonzero"/></clipPath><clipPath id="55aa6264f2"><path d="M 15.496094 48.863281 L 73.5625 106.929688 L 58.945312 121.546875 L 0.878906 63.480469 Z M 15.496094 48.863281 " clip-rule="nonzero"/></clipPath><clipPath id="a8a47ec22f"><path d="M 59.035156 92.402344 L 15.496094 48.863281 L 15.394531 77.992188 L 58.929688 121.53125 Z M 59.035156 92.402344 " clip-rule="nonzero"/></clipPath><clipPath id="bbe836f0cf"><path d="M 0.359375 0.71875 L 44.039062 0.71875 L 44.039062 73.679688 L 0.359375 73.679688 Z M 0.359375 0.71875 " clip-rule="nonzero"/></clipPath><clipPath id="4e1de355ee"><path d="M 0.496094 0.863281 L 58.5625 58.929688 L 43.945312 73.546875 L -14.121094 15.480469 Z M 0.496094 0.863281 " clip-rule="nonzero"/></clipPath><clipPath id="66c9d0af5c"><path d="M 44.035156 44.402344 L 0.496094 0.863281 L 0.394531 29.992188 L 43.929688 73.53125 Z M 44.035156 44.402344 " clip-rule="nonzero"/></clipPath><clipPath id="bb8262a2d7"><rect x="0" width="45" y="0" height="74"/></clipPath><clipPath id="8a38f62aff"><path d="M 6.882812 121.527344 L 89 121.527344 L 89 142.199219 L 6.882812 142.199219 Z M 6.882812 121.527344 " clip-rule="nonzero"/></clipPath><clipPath id="a62e3fec9e"><path d="M 68.453125 121.527344 L 6.882812 121.527344 L 27.40625 142.199219 L 88.976562 142.199219 Z M 68.453125 121.527344 " clip-rule="nonzero"/></clipPath><clipPath id="ae6d33ab02"><path d="M 0.882812 0.527344 L 83 0.527344 L 83 21.199219 L 0.882812 21.199219 Z M 0.882812 0.527344 " clip-rule="nonzero"/></clipPath><clipPath id="33015dbc4c"><path d="M 62.453125 0.527344 L 0.882812 0.527344 L 21.40625 21.199219 L 82.976562 21.199219 Z M 62.453125 0.527344 " clip-rule="nonzero"/></clipPath><clipPath id="83986ff9df"><rect x="0" width="83" y="0" height="22"/></clipPath><clipPath id="a4fc904f24"><rect x="0" width="195" y="0" height="195"/></clipPath></defs><g transform="matrix(1, 0, 0, 1, 90, 90)"><g clip-path="url(#a4fc904f24)"><g clip-path="url(#0b4b806b0b)"><g clip-path="url(#96dbf62011)"><g clip-path="url(#013b8a760c)"><g transform="matrix(1, 0, 0, 1, 50, 136)"><g clip-path="url(#e1be3a3785)"><g clip-path="url(#0d8f785d71)"><g clip-path="url(#219737b063)"><g clip-path="url(#8ef5eed53e)"><path fill="#000000" d="M 0.757812 43.574219 L 58.824219 -14.492188 L 73.441406 0.125 L 15.375 58.1875 Z M 0.757812 43.574219 " fill-opacity="1" fill-rule="nonzero"/></g></g></g></g></g></g></g></g><g clip-path="url(#bda02562d4)"><g clip-path="url(#ff42345173)"><g transform="matrix(1, 0, 0, 1, 123, 109)"><g clip-path="url(#92c460fd72)"><g clip-path="url(#0e03222db8)"><g clip-path="url(#a0da9e8dd5)"><path fill="#000000" d="M 0.421875 82.894531 L 0.421875 0.777344 L 21.09375 0.777344 L 21.09375 82.894531 Z M 0.421875 82.894531 " fill-opacity="1" fill-rule="nonzero"/></g></g></g></g></g></g><g clip-path="url(#d06aef65b8)"><g clip-path="url(#73b21c5a21)"><g clip-path="url(#96e2c8c89d)"><g transform="matrix(1, 0, 0, 1, 73, 15)"><g clip-path="url(#ad168e2ecc)"><g clip-path="url(#b38768f974)"><g clip-path="url(#8dd8ec1e95)"><g clip-path="url(#23981d500e)"><path fill="#000000" d="M 73.203125 0.425781 L 15.140625 58.488281 L 0.523438 43.875 L 58.589844 -14.191406 Z M 73.203125 0.425781 " fill-opacity="1" fill-rule="nonzero"/></g></g></g></g></g></g></g></g><g clip-path="url(#d437909105)"><g clip-path="url(#f93ac075ac)"><g clip-path="url(#2a46b4826f)"><g transform="matrix(1, 0, 0, 1, 135, 73)"><g clip-path="url(#4e9f85679d)"><g clip-path="url(#4f94091d12)"><g clip-path="url(#4fed98d626)"><g clip-path="url(#eeb5e052c8)"><path fill="#000000" d="M 44.488281 73.132812 L -13.578125 15.066406 L 1.039062 0.449219 L 59.105469 58.515625 Z M 44.488281 73.132812 " fill-opacity="1" fill-rule="nonzero"/></g></g></g></g></g></g></g></g><g clip-path="url(#02e403c506)"><g clip-path="url(#a88269442b)"><g transform="matrix(1, 0, 0, 1, 53, 4)"><g clip-path="url(#f41559b6b5)"><g clip-path="url(#2350177b30)"><g clip-path="url(#5f0f4d1ec0)"><path fill="#000000" d="M 20.847656 0.753906 L 20.847656 82.867188 L 0.179688 82.867188 L 0.179688 0.753906 Z M 20.847656 0.753906 " fill-opacity="1" fill-rule="nonzero"/></g></g></g></g></g></g><g clip-path="url(#2de5a8362e)"><g clip-path="url(#daa6add1de)"><g transform="matrix(1, 0, 0, 1, 108, 52)"><g clip-path="url(#c589d61aea)"><g clip-path="url(#b8637b22a6)"><g clip-path="url(#8aa22eb03b)"><path fill="#000000" d="M 82.460938 21.46875 L 0.34375 21.46875 L 0.34375 0.800781 L 82.460938 0.800781 Z M 82.460938 21.46875 " fill-opacity="1" fill-rule="nonzero"/></g></g></g></g></g></g><g clip-path="url(#a7ba2f3177)"><g clip-path="url(#55aa6264f2)"><g clip-path="url(#a8a47ec22f)"><g transform="matrix(1, 0, 0, 1, 15, 48)"><g clip-path="url(#bb8262a2d7)"><g clip-path="url(#bbe836f0cf)"><g clip-path="url(#4e1de355ee)"><g clip-path="url(#66c9d0af5c)"><path fill="#000000" d="M 0.496094 0.863281 L 58.5625 58.929688 L 43.945312 73.546875 L -14.121094 15.480469 Z M 0.496094 0.863281 " fill-opacity="1" fill-rule="nonzero"/></g></g></g></g></g></g></g></g><g clip-path="url(#8a38f62aff)"><g clip-path="url(#a62e3fec9e)"><g transform="matrix(1, 0, 0, 1, 6, 121)"><g clip-path="url(#83986ff9df)"><g clip-path="url(#ae6d33ab02)"><g clip-path="url(#33015dbc4c)"><path fill="#000000" d="M 0.882812 0.527344 L 83 0.527344 L 83 21.199219 L 0.882812 21.199219 Z M 0.882812 0.527344 " fill-opacity="1" fill-rule="nonzero"/></g></g></g></g></g></g></g></g></svg>