<svg xmlns="http://www.w3.org/2000/svg" xmlns:xlink="http://www.w3.org/1999/xlink" width="500" zoomAndPan="magnify" viewBox="0 0 375 374.999991" height="500" preserveAspectRatio="xMidYMid meet" version="1.0"><defs><clipPath id="3632fff6ea"><path d="M 50 136 L 124 136 L 124 180 L 50 180 Z M 50 136 " clip-rule="nonzero"/></clipPath><clipPath id="c79548d4ea"><path d="M 50.757812 179.574219 L 108.824219 121.507812 L 123.441406 136.125 L 65.375 194.1875 Z M 50.757812 179.574219 " clip-rule="nonzero"/></clipPath><clipPath id="59cd23a25a"><path d="M 94.296875 136.035156 L 50.757812 179.574219 L 79.886719 179.675781 L 123.425781 136.136719 Z M 94.296875 136.035156 " clip-rule="nonzero"/></clipPath><clipPath id="c327d1dd25"><path d="M 0.640625 0 L 73.601562 0 L 73.601562 43.761719 L 0.640625 43.761719 Z M 0.640625 0 " clip-rule="nonzero"/></clipPath><clipPath id="507928d8f0"><path d="M 0.757812 43.574219 L 58.824219 -14.492188 L 73.441406 0.125 L 15.375 58.1875 Z M 0.757812 43.574219 " clip-rule="nonzero"/></clipPath><clipPath id="cdba6fdced"><path d="M 44.296875 0.0351562 L 0.757812 43.574219 L 29.886719 43.675781 L 73.425781 0.136719 Z M 44.296875 0.0351562 " clip-rule="nonzero"/></clipPath><clipPath id="40f4a3e2e6"><rect x="0" width="74" y="0" height="44"/></clipPath><clipPath id="f4f386fe5e"><path d="M 123.421875 109.777344 L 144.09375 109.777344 L 144.09375 191.894531 L 123.421875 191.894531 Z M 123.421875 109.777344 " clip-rule="nonzero"/></clipPath><clipPath id="30745f07d8"><path d="M 123.421875 130.320312 L 123.421875 191.894531 L 144.09375 171.371094 L 144.09375 109.796875 Z M 123.421875 130.320312 " clip-rule="nonzero"/></clipPath><clipPath id="5e55adc3c3"><path d="M 0.421875 0.777344 L 21.09375 0.777344 L 21.09375 82.894531 L 0.421875 82.894531 Z M 0.421875 0.777344 " clip-rule="nonzero"/></clipPath><clipPath id="c83dd58dac"><path d="M 0.421875 21.320312 L 0.421875 82.894531 L 21.09375 62.371094 L 21.09375 0.796875 Z M 0.421875 21.320312 " clip-rule="nonzero"/></clipPath><clipPath id="a508318712"><rect x="0" width="22" y="0" height="83"/></clipPath><clipPath id="ab6cafcf9c"><path d="M 73 15 L 147 15 L 147 59 L 73 59 Z M 73 15 " clip-rule="nonzero"/></clipPath><clipPath id="17eeaa5928"><path d="M 146.203125 15.425781 L 88.140625 73.488281 L 73.523438 58.875 L 131.589844 0.808594 Z M 146.203125 15.425781 " clip-rule="nonzero"/></clipPath><clipPath id="3514c891a4"><path d="M 102.667969 58.960938 L 146.203125 15.425781 L 117.074219 15.320312 L 73.539062 58.859375 Z M 102.667969 58.960938 " clip-rule="nonzero"/></clipPath><clipPath id="9fb3671e4b"><path d="M 0.441406 0.121094 L 73.398438 0.121094 L 73.398438 44 L 0.441406 44 Z M 0.441406 0.121094 " clip-rule="nonzero"/></clipPath><clipPath id="4806ff0ffc"><path d="M 73.203125 0.425781 L 15.140625 58.488281 L 0.523438 43.875 L 58.589844 -14.191406 Z M 73.203125 0.425781 " clip-rule="nonzero"/></clipPath><clipPath id="ededb3b8a0"><path d="M 29.667969 43.960938 L 73.203125 0.425781 L 44.074219 0.320312 L 0.539062 43.859375 Z M 29.667969 43.960938 " clip-rule="nonzero"/></clipPath><clipPath id="db7a4ae3b7"><rect x="0" width="74" y="0" height="44"/></clipPath><clipPath id="34eb2cd555"><path d="M 135 73 L 180 73 L 180 147 L 135 147 Z M 135 73 " clip-rule="nonzero"/></clipPath><clipPath id="700ffd7c66"><path d="M 179.488281 146.132812 L 121.421875 88.066406 L 136.039062 73.449219 L 194.105469 131.515625 Z M 179.488281 146.132812 " clip-rule="nonzero"/></clipPath><clipPath id="af65260b95"><path d="M 135.949219 102.59375 L 179.488281 146.132812 L 179.59375 117.003906 L 136.054688 73.464844 Z M 135.949219 102.59375 " clip-rule="nonzero"/></clipPath><clipPath id="573e9bd6e6"><path d="M 0.839844 0.441406 L 44.761719 0.441406 L 44.761719 73.160156 L 0.839844 73.160156 Z M 0.839844 0.441406 " clip-rule="nonzero"/></clipPath><clipPath id="7d5bec45f0"><path d="M 44.488281 73.132812 L -13.578125 15.066406 L 1.039062 0.449219 L 59.105469 58.515625 Z M 44.488281 73.132812 " clip-rule="nonzero"/></clipPath><clipPath id="3b86fb5a39"><path d="M 0.949219 29.59375 L 44.488281 73.132812 L 44.59375 44.003906 L 1.054688 0.464844 Z M 0.949219 29.59375 " clip-rule="nonzero"/></clipPath><clipPath id="a07b9adf35"><rect x="0" width="45" y="0" height="74"/></clipPath><clipPath id="28d7e7a415"><path d="M 53.179688 4.753906 L 73.847656 4.753906 L 73.847656 86.867188 L 53.179688 86.867188 Z M 53.179688 4.753906 " clip-rule="nonzero"/></clipPath><clipPath id="a05cf7193c"><path d="M 73.847656 66.324219 L 73.847656 4.753906 L 53.179688 25.277344 L 53.179688 86.847656 Z M 73.847656 66.324219 " clip-rule="nonzero"/></clipPath><clipPath id="a5188a9f64"><path d="M 0.179688 0.753906 L 20.847656 0.753906 L 20.847656 82.867188 L 0.179688 82.867188 Z M 0.179688 0.753906 " clip-rule="nonzero"/></clipPath><clipPath id="a174327cd8"><path d="M 20.847656 62.324219 L 20.847656 0.753906 L 0.179688 21.277344 L 0.179688 82.847656 Z M 20.847656 62.324219 " clip-rule="nonzero"/></clipPath><clipPath id="e4dd4068d6"><rect x="0" width="21" y="0" height="83"/></clipPath><clipPath id="4ac89fd82d"><path d="M 108.34375 52.800781 L 190.460938 52.800781 L 190.460938 73.46875 L 108.34375 73.46875 Z M 108.34375 52.800781 " clip-rule="nonzero"/></clipPath><clipPath id="a280fce141"><path d="M 128.886719 73.46875 L 190.460938 73.46875 L 169.9375 52.800781 L 108.363281 52.800781 Z M 128.886719 73.46875 " clip-rule="nonzero"/></clipPath><clipPath id="e5e949a7b4"><path d="M 0.34375 0.800781 L 82.460938 0.800781 L 82.460938 21.46875 L 0.34375 21.46875 Z M 0.34375 0.800781 " clip-rule="nonzero"/></clipPath><clipPath id="11d35bdcac"><path d="M 20.886719 21.46875 L 82.460938 21.46875 L 61.9375 0.800781 L 0.363281 0.800781 Z M 20.886719 21.46875 " clip-rule="nonzero"/></clipPath><clipPath id="1319ffcec0"><rect x="0" width="83" y="0" height="22"/></clipPath><clipPath id="26b710278c"><path d="M 15 48 L 60 48 L 60 122 L 15 122 Z M 15 48 " clip-rule="nonzero"/></clipPath><clipPath id="694d4943ec"><path d="M 15.496094 48.863281 L 73.5625 106.929688 L 58.945312 121.546875 L 0.878906 63.480469 Z M 15.496094 48.863281 " clip-rule="nonzero"/></clipPath><clipPath id="5d1d66adbb"><path d="M 59.035156 92.402344 L 15.496094 48.863281 L 15.394531 77.992188 L 58.929688 121.53125 Z M 59.035156 92.402344 " clip-rule="nonzero"/></clipPath><clipPath id="5634bd0015"><path d="M 0.359375 0.71875 L 44.039062 0.71875 L 44.039062 73.679688 L 0.359375 73.679688 Z M 0.359375 0.71875 " clip-rule="nonzero"/></clipPath><clipPath id="af61dc6fe4"><path d="M 0.496094 0.863281 L 58.5625 58.929688 L 43.945312 73.546875 L -14.121094 15.480469 Z M 0.496094 0.863281 " clip-rule="nonzero"/></clipPath><clipPath id="c230befdcb"><path d="M 44.035156 44.402344 L 0.496094 0.863281 L 0.394531 29.992188 L 43.929688 73.53125 Z M 44.035156 44.402344 " clip-rule="nonzero"/></clipPath><clipPath id="f7e7a04639"><rect x="0" width="45" y="0" height="74"/></clipPath><clipPath id="ed8625529f"><path d="M 6.882812 121.527344 L 89 121.527344 L 89 142.199219 L 6.882812 142.199219 Z M 6.882812 121.527344 " clip-rule="nonzero"/></clipPath><clipPath id="3805104add"><path d="M 68.453125 121.527344 L 6.882812 121.527344 L 27.40625 142.199219 L 88.976562 142.199219 Z M 68.453125 121.527344 " clip-rule="nonzero"/></clipPath><clipPath id="2403c53262"><path d="M 0.882812 0.527344 L 83 0.527344 L 83 21.199219 L 0.882812 21.199219 Z M 0.882812 0.527344 " clip-rule="nonzero"/></clipPath><clipPath id="e76ce85e95"><path d="M 62.453125 0.527344 L 0.882812 0.527344 L 21.40625 21.199219 L 82.976562 21.199219 Z M 62.453125 0.527344 " clip-rule="nonzero"/></clipPath><clipPath id="63a1259512"><rect x="0" width="83" y="0" height="22"/></clipPath><clipPath id="647804b033"><rect x="0" width="195" y="0" height="195"/></clipPath></defs><g transform="matrix(1, 0, 0, 1, 90, 90)"><g clip-path="url(#647804b033)"><g clip-path="url(#3632fff6ea)"><g clip-path="url(#c79548d4ea)"><g clip-path="url(#59cd23a25a)"><g transform="matrix(1, 0, 0, 1, 50, 136)"><g clip-path="url(#40f4a3e2e6)"><g clip-path="url(#c327d1dd25)"><g clip-path="url(#507928d8f0)"><g clip-path="url(#cdba6fdced)"><path fill="#ffffff" d="M 0.757812 43.574219 L 58.824219 -14.492188 L 73.441406 0.125 L 15.375 58.1875 Z M 0.757812 43.574219 " fill-opacity="1" fill-rule="nonzero"/></g></g></g></g></g></g></g></g><g clip-path="url(#f4f386fe5e)"><g clip-path="url(#30745f07d8)"><g transform="matrix(1, 0, 0, 1, 123, 109)"><g clip-path="url(#a508318712)"><g clip-path="url(#5e55adc3c3)"><g clip-path="url(#c83dd58dac)"><path fill="#ffffff" d="M 0.421875 82.894531 L 0.421875 0.777344 L 21.09375 0.777344 L 21.09375 82.894531 Z M 0.421875 82.894531 " fill-opacity="1" fill-rule="nonzero"/></g></g></g></g></g></g><g clip-path="url(#ab6cafcf9c)"><g clip-path="url(#17eeaa5928)"><g clip-path="url(#3514c891a4)"><g transform="matrix(1, 0, 0, 1, 73, 15)"><g clip-path="url(#db7a4ae3b7)"><g clip-path="url(#9fb3671e4b)"><g clip-path="url(#4806ff0ffc)"><g clip-path="url(#ededb3b8a0)"><path fill="#ffffff" d="M 73.203125 0.425781 L 15.140625 58.488281 L 0.523438 43.875 L 58.589844 -14.191406 Z M 73.203125 0.425781 " fill-opacity="1" fill-rule="nonzero"/></g></g></g></g></g></g></g></g><g clip-path="url(#34eb2cd555)"><g clip-path="url(#700ffd7c66)"><g clip-path="url(#af65260b95)"><g transform="matrix(1, 0, 0, 1, 135, 73)"><g clip-path="url(#a07b9adf35)"><g clip-path="url(#573e9bd6e6)"><g clip-path="url(#7d5bec45f0)"><g clip-path="url(#3b86fb5a39)"><path fill="#ffffff" d="M 44.488281 73.132812 L -13.578125 15.066406 L 1.039062 0.449219 L 59.105469 58.515625 Z M 44.488281 73.132812 " fill-opacity="1" fill-rule="nonzero"/></g></g></g></g></g></g></g></g><g clip-path="url(#28d7e7a415)"><g clip-path="url(#a05cf7193c)"><g transform="matrix(1, 0, 0, 1, 53, 4)"><g clip-path="url(#e4dd4068d6)"><g clip-path="url(#a5188a9f64)"><g clip-path="url(#a174327cd8)"><path fill="#ffffff" d="M 20.847656 0.753906 L 20.847656 82.867188 L 0.179688 82.867188 L 0.179688 0.753906 Z M 20.847656 0.753906 " fill-opacity="1" fill-rule="nonzero"/></g></g></g></g></g></g><g clip-path="url(#4ac89fd82d)"><g clip-path="url(#a280fce141)"><g transform="matrix(1, 0, 0, 1, 108, 52)"><g clip-path="url(#1319ffcec0)"><g clip-path="url(#e5e949a7b4)"><g clip-path="url(#11d35bdcac)"><path fill="#ffffff" d="M 82.460938 21.46875 L 0.34375 21.46875 L 0.34375 0.800781 L 82.460938 0.800781 Z M 82.460938 21.46875 " fill-opacity="1" fill-rule="nonzero"/></g></g></g></g></g></g><g clip-path="url(#26b710278c)"><g clip-path="url(#694d4943ec)"><g clip-path="url(#5d1d66adbb)"><g transform="matrix(1, 0, 0, 1, 15, 48)"><g clip-path="url(#f7e7a04639)"><g clip-path="url(#5634bd0015)"><g clip-path="url(#af61dc6fe4)"><g clip-path="url(#c230befdcb)"><path fill="#ffffff" d="M 0.496094 0.863281 L 58.5625 58.929688 L 43.945312 73.546875 L -14.121094 15.480469 Z M 0.496094 0.863281 " fill-opacity="1" fill-rule="nonzero"/></g></g></g></g></g></g></g></g><g clip-path="url(#ed8625529f)"><g clip-path="url(#3805104add)"><g transform="matrix(1, 0, 0, 1, 6, 121)"><g clip-path="url(#63a1259512)"><g clip-path="url(#2403c53262)"><g clip-path="url(#e76ce85e95)"><path fill="#ffffff" d="M 0.882812 0.527344 L 83 0.527344 L 83 21.199219 L 0.882812 21.199219 Z M 0.882812 0.527344 " fill-opacity="1" fill-rule="nonzero"/></g></g></g></g></g></g></g></g></svg>